<svg version="1.0" xmlns="http://www.w3.org/2000/svg" width="853.333" height="853.333" viewBox="0 0 640 640"><path d="M293.7 64.6c-.3.3-3.8 1-7.7 1.4-4 .4-7.6 1.2-8.2 1.8-.5.5-1.7 5.4-2.5 10.8-.8 5.5-2 10.9-2.5 12.1-.6 1.1-.7 2.6-.4 3.2.9 1.4-2.3 8.2-4.6 9.9-2.2 1.6-2.3 3.5-.3 7 .8 1.5 1.9 3.8 2.5 5.2.5 1.4 1.4 3.2 1.9 4 .5.8 1.6 4 2.6 7.1 1.6 5.2 1.6 5.8.1 8.8-.9 1.7-1.4 3.6-1.1 4.1.4.6.1 2.5-.6 4.3-1 2.8-.9 4.2.6 8.6 1 3.1 1.5 6.5 1.1 8.4-.3 1.8 0 5.1.7 7.5.9 3 1.1 6 .5 9.5-.4 2.9-1.2 8.3-1.8 12.1-.5 3.8-1.7 7.7-2.6 8.7-.9 1-1.8 3.5-1.9 5.6-.1 2.1-.7 4.9-1.3 6.3-1.6 4.1-3.4 19.8-2.3 21.8 1 1.9.3 8.1-1.1 9.9-.6.8-.6 2.4.1 4.5.6 1.8 1.3 5.4 1.6 8 .4 2.7 1.1 4.8 1.6 4.8.6 0 .9-1.2.7-2.7-.3-2.2.2-2.8 3.2-3.8 3.8-1.3 4.9-3.9 3.1-7.4-.7-1.3-.8-2.2-.1-2.6 2-1.2 1.1-5.2-1.2-5.9-2.2-.6-2.2-.6.7-2.4 2.1-1.3 3.1-2.8 3.3-4.8.1-1.5.9-3.2 1.7-3.7.8-.4 1.5-1.3 1.5-2s1.4-2.5 3-4c1.7-1.6 3-3.4 3-4.1 0-2.4 3.7-4.7 7.6-4.8 2.2-.1 5.8.8 8.3 2 2.5 1.2 4.6 2.2 4.8 2.2.2 0 .3-1.8.3-4 0-3.4.3-4 2.1-4 1.6 0 1.9-.4 1.4-2-.5-1.7-.2-2 2.1-2 2.5 0 2.6.2 2 3.2-.4 2.3-.1 4.3 1.1 6.6 1.8 3.3 1.8 3.4-.4 5.2-2.3 1.8-3.1 5-1.4 5 2.7 0 5.1 15.3 2.8 17.7-1.7 1.6-.4 3.4 3.4 4.9 3 1.3 3.8 2.1 3.3 3.3-1.7 4.3-1.5 5 2.3 7.4 8.1 5.3 21.8 5.6 28 .7 1.4-1.1 3.1-2 3.7-2 .6 0 3.4-1.8 6.3-3.9 2.8-2.2 7.3-4.7 9.8-5.5 6.9-2.4 12.3-5.4 13.5-7.5 1.3-2.5 3.3-20.8 2.6-23.7-.9-3.3-2.9-3-4.3.6-.6 1.6-2 3.3-3 3.6-1 .4-3.8 1.6-6.3 2.7-2.4 1.2-5.5 2-6.7 1.9-2.8-.2-8-3.5-6.4-4 .6-.2 1.1-1 1.1-1.8 0-1.7-3.1-1.9-4.7-.3-.8.8-1.9 0-3.9-2.7-1.6-2.1-4.6-5.6-6.6-7.7-4.2-4.3-4.7-6.3-2.1-8.2 1.4-1.1 1.5-1.7.7-3.6-.6-1.3-1.9-5.1-2.9-8.4-1-3.3-2.5-6.7-3.2-7.6-1.6-1.9-1.7-5.9-.3-5.9s5.6-4.6 7.5-8.2c1.3-2.4 1.8-2.6 4.1-1.8 2.1.9 2.9.6 4.5-1.2 1.1-1.4 1.8-1.8 1.9-.9 0 .9 1.1 1.2 4 .9 3.3-.3 4 0 4 1.4 0 2.2 2.8 2.4 3.6.3.9-2.3 2.3-1.8 3.7 1.2.6 1.5 2.8 4.2 4.8 6 2.4 2.1 4.2 5 5 7.9 1.3 4.3 3.2 6.4 4.6 5.1.3-.3 1.1-3.2 1.8-6.4s2-8.1 2.8-10.8c2.2-7 3.5-12 5.1-19.5 2.7-12.8 5.5-18.8 10.1-21.8 4.4-2.8 6.1-2.8 7.9.1 1.9 2.9 3.5 16.1 2.5 20.6-.8 3.6.3 11.6 2.3 16.1.6 1.4 1.2 3.4 1.4 4.5.2 1.1.7 3.5 1 5.3.4 2.2 1.1 3.2 2.2 3 1.6-.3 2.4-1.5 4.2-6.6 1.1-2.8 1.7-3.2 4.7-3.2 1.9 0 4.8-.9 6.4-2.1 3.6-2.6 10-1.9 12.7 1.4 1 1.2 3.1 2.9 4.6 3.7 1.6.8 3.2 2.2 3.6 3 .4.8 1.4 3 2.3 4.8 1.5 3 1.5 3.7.2 7-.9 2-2.3 4.3-3.3 5-1.3 1-1.4 1.6-.5 3.1 1 1.5.9 2.2-.2 3.1-2.1 1.8-1.8 6.4.5 8.5 2 1.8 2 1.8-.2 3.4-1.3.8-3.4 2.8-4.6 4.3-2.7 3.2-15.8 14-19.1 15.8-1.9 1-2.8.8-6.2-1.6-4.1-2.8-11.8-4.8-13.3-3.4-.5.5-.2 2.5.6 4.7.9 2.1 1.9 6.6 2.3 10.1.7 5.9 1 6.5 4.4 8.6 2 1.2 5 2.8 6.6 3.4 1.7.7 6.3 5 10.3 9.6 7.1 8.2 11.7 11 13.4 8.3.5-.8 1.3-.8 3.1 0 2.1 1 2.8.8 4.6-1.3 2.7-3.1 2.7-4-.6-7l-2.8-2.5 4.8.6c2.6.3 4.6.2 4.5-.2-.4-1.3 2.4-8.3 3.4-8.3.4 0 .8-1.1.8-2.4 0-1.7-.9-2.7-3-3.6-3.1-1.3-3.4-2.1-2.4-8.2.5-2.9 1.2-3.9 3.6-4.7 2.6-.9 4.1-3.2 4-5.8-.1-1.3-4.5-2.1-6.3-1.2-1 .5-2.4.3-3.5-.5-1.6-1.2-1.7-1.7-.5-3.9.8-1.4 1.1-3.2.8-4-.4-1.1.6-1.6 4.4-2.1 4.6-.6 4.9-.8 4.9-3.6 0-1.7.5-3 1-3 .6 0 1.3-.8 1.7-1.8.8-2.3 4.4-6.2 5.7-6.2 1.6 0 3.4 4.6 2.5 6.2-.5 1 .3 2.7 2.4 5.1l3.2 3.7 5-1.6c2.8-.9 5.4-2 5.9-2.5.5-.4 2.2-.5 3.9-.2 2.2.5 3.3.1 4.4-1.2 1.6-2.3 1.7-3.6.1-3.3-.8.2-1.5-1.5-1.8-4.9-.3-2.9-1.1-5.8-1.8-6.5-1.7-1.7-1.5-3.9.3-3.2.8.4 1.5.2 1.5-.4 0-.5-.6-1.2-1.4-1.5-1.9-.8-1.3-9.8 1-13.2 1.5-2.2 1.4-2.5-.5-4.2-1.6-1.3-2.1-2.9-2.1-6.3 0-2.5-.6-5.4-1.3-6.5-1.5-2.5-1.5-4.8 0-6.7 1.4-1.6 1.8-6.3.8-9.3-.8-2.6 2.8-7.5 5.5-7.5 2.6 0 3.5-1.9 1.7-3.3-.9-.7-1.7-3.3-2-6.1-.4-5.3-1.6-6.5-5-4.8-1.2.5-4.4 2-7.2 3.2-2.7 1.2-6.9 3.6-9.3 5.2-2.3 1.6-5.5 3-7 3.1-2.3.2-2.8-.2-3-2.6-.4-3.2 2.1-7.7 4.2-7.7.8 0 2.9-1.8 4.7-4.1 1.9-2.2 6.8-7.6 10.9-12 7-7.4 7.9-8 13.4-9.2 4.7-.9 6-.9 6.4.1.2.6 1.4 1.2 2.7 1.2 1.3 0 2.7.5 3 1.1.4.6 1.3.8 2.1.5 1.7-.6 2.8 1 1.3 1.9-.6.4-.8 1.8-.5 3.1.5 1.7.1 2.6-1.4 3.4-2.5 1.4-2.6 3.2 0 4.8 2.6 1.6 2.6 3.8-.1 4.5-1.5.4-2 1.1-1.5 2.2.3.9.6 3 .6 4.6 0 2.3.5 2.9 2.1 2.9 2.1 0 4.9-5.1 4.9-9.1 0-1.1.7-3.6 1.6-5.4 1.2-2.5 1.3-3.8.5-5.3s-.6-2.8.6-5.3c1-1.9 1.8-5.7 1.8-8.4.1-9.2-5.8-11.4-26.7-9.8-7.7.6-7.7.6-15.5 6.9-4.3 3.6-9.1 6.8-10.8 7.3-1.6.5-5.5 1.9-8.5 3-3 1.2-6.9 2.1-8.6 2.1-3.3 0-8.4-3.8-8.4-6.4 0-1.7-6-5.6-8.6-5.6-1.1 0-2.9-.7-4.1-1.5-1.2-.8-5.8-2.2-10.3-2.9-4.5-.8-9-2.2-9.9-3-1-.9-2.5-1.6-3.3-1.6-.9 0-2.1-.7-2.8-1.5-.7-.9-2-1.4-2.9-1.2-.9.2-2.8-.2-4.2-.9-2.8-1.4-5.3-1.5-20.4-1.4-6.3.1-9.5.6-10.6 1.6-1.2 1.1-2.3 1.2-4.2.5-2.9-1.1-3.7-.6-3.7 2.3 0 2-.1 2-2-.4l-2-2.5-2.3 2.7c-2 2.5-3 2.8-7.9 2.8-4.6 0-6 .4-7.1 2-1.4 2-1.5 2-4.5.3s-3-1.7-5.6 1.4l-2.7 3.2-6.7-3.6c-3.7-2-10.4-7-15-11-5.6-4.9-9-7.3-10.7-7.3-1.4 0-4.2-.7-6.2-1.5-3.7-1.6-6.6-1.9-7.6-.9zm10.2 16.3c2 1.6 4.3 4.2 5.1 5.8.8 1.5 1.8 3.2 2.3 3.8.4.5 2.1 2.7 3.7 4.9 1.6 2.1 2.8 4.2 2.5 4.6-.3.5 1.5 2.6 4 4.8 4.2 3.6 5.9 7.2 3.5 7.2-.5 0-1 1.2-1 2.6 0 2-.4 2.5-1.6 2-.9-.3-2.1-.6-2.7-.6-.6 0-.1-.7 1.2-1.7 2.3-1.5 2.3-1.7.6-3-1.1-.7-2.7-1.3-3.8-1.3-2.3 0-6.7-3.4-14.7-11.4l-6-5.9-3 3.1c-1.8 1.9-3.6 2.9-4.5 2.6-1.9-.8-2.9-4.5-2-7.5.4-1.3.2-2.4-.5-2.9-1.7-1-.3-3 2.1-3 1.3 0 1.9-.7 1.9-2.4s.8-2.6 3.3-3.4c4.9-1.5 5.6-1.4 9.6 1.7zM291 101.6c1.1 1.2 1 1.8-.6 3.5-1.7 1.7-2.2 1.7-3.8.6-1.5-1.1-1.7-1.7-.7-3.5 1.4-2.6 3.3-2.8 5.1-.6zm156.9 3.5c-2.1 1.3-2.9 1.1-2.9-1 0-2.4 2.2-3.3 3.4-1.3.5.9.4 1.7-.5 2.3zm-160.1 3.6c.5 1 1.3 3.9 1.6 6.5.4 2.7 1.1 4.8 1.7 4.8 1.7 0 .9 1.9-1.1 2.5-1.7.6-2 1.4-1.7 7.1.1 3.5.5 6.4 1 6.4 1.7 0 .5 3.1-1.7 4.5-2.2 1.5-2.7 1.5-5.5.1-1.6-.9-3.2-2.4-3.5-3.3-.9-2.7-.5-14.5.5-17.1.6-1.6.6-2.9-.1-3.7-.8-.9-.8-1.5 0-2 .5-.3 1-1.3 1-2.1 0-1.8 3.8-5.3 5.7-5.4.7 0 1.6.8 2.1 1.7zM501 183.5c0 .8-.6 1.5-1.4 1.5-1.7 0-2.8-1.4-1.9-2.4 1.2-1.2 3.3-.6 3.3.9zm-11 5.5c0 .5-.4 1-1 1-.5 0-1-.5-1-1 0-.6.5-1 1-1 .6 0 1 .4 1 1z"/><path d="M504.2 215c0 1.4.2 1.9.5 1.2.2-.6.2-1.8 0-2.5-.3-.6-.5-.1-.5 1.3zM267 273.3c0 .7.4 1.7 1 2.3 1.2 1.2 1.5 5.3.6 7.6-.6 1.2-.2 1.7 1.6 2 2 .3 2.3.8 2 3.8-.5 4.8-3 6.9-8.1 6.8-2.3 0-4.4.2-4.6.4-.3.2-.5 2.8-.6 5.6-.2 4 .3 6 1.9 8.2 2.7 3.6 2.7 5.1.4 8-1.6 1.9-2.1 2.1-4.1 1.1-2.2-1.2-6.1-.7-6.1.9 0 .4 1.1 1.5 2.5 2.4 3.3 2.2 3.3 4.6 0 4.6-1.4 0-2.8.7-3.2 1.5-.8 2.2.1 2.7 3 1.6 2-.8 2.8-.6 4.2.9 1.6 1.7 1.6 1.9-.2 2.8-1 .5-2.7.6-3.8.1-3.2-1.2-3.5-1.1-3.5 1.9 0 1.5-.5 3.3-1.2 4-.9.9-.3 1.2 3 1.2 3.1 0 4.2.4 4.2 1.5 0 .8-.8 1.5-1.7 1.5-1.5.1-1.4.4.6 2l2.3 2-2.3 2c-2.3 1.8-2.3 1.9-.4 2.1 1.1 0 3.4 0 5.1-.1 1.8-.1 3.5.3 3.9.9.3.6 1.4 1.1 2.3 1.1 1 0 2.3.9 3 2.1 1.1 1.7 1.9 1.9 5.6 1.4 3.5-.6 4.6-.4 5.3 1 .8 1.3 2.5 1.6 8.6 1.6 4.2 0 7.7.4 7.7.9s2.4 1 5.3 1.2c3.8.2 5.1.7 4.9 1.7-.4 2.1 1.8 3.1 4.5 2 3.2-1.2 10.3-.1 12.8 2 2.7 2.3 9.3 4.8 12.9 5 1.6.1 3.7.8 4.6 1.6.9.8 2.3 1.5 3.1 1.5.8 0 1.9.4 2.5.9.5.5 4.8 1.1 9.7 1.3 6.8.3 8.7.1 8.7-.9 0-.7-.7-1.3-1.5-1.3s-1.5-.5-1.5-1.1c0-.7-1.1-2.1-2.3-3.3-4.6-4.2-11.7-14.4-11.1-16 .3-.9 0-2.6-.8-3.9-2.2-3.2-2.8-8.8-1.1-9.4 2.3-.9 1.4-3.1-1.9-4.7-3.8-1.9-3.8-1.9-3.8-.1 0 .7.8 1.8 1.8 2.4 1.3.8 1.4 1.2.5 2.2-1 1-1.5 1-2.7 0-1.1-.9-2-1-3.5-.2-2.1 1.2-5.1.5-5.1-1.1 0-.5.9-1.2 2-1.5 1.9-.5 1.9-.7-.7-2-1.7-.9-4.3-1.3-6.4-1-3.2.4-3.6.2-3.2-1.4.4-1.6 0-1.9-2.6-1.9-2.4 0-3.4-.6-4.3-2.5-1.3-3-2.4-3.1-4-.6-1.3 2.1-3.8 1.7-3.8-.5 0-1.9-3.4-1.8-5 .1-1.5 1.8-4.3 1.9-7.1.4-2.3-1.2-1.6-2.9 1.2-2.9 1 0 1.9-.5 1.9-1 0-.6-.9-1-2-1-2.6 0-2.6-2.6 0-3.3 1.4-.4 1.8-1 1.4-2.2-.5-1.2-1.4-1.5-3-1.1-2.7.7-3.2-.5-1-2.4 1.8-1.4 1-4-1.3-4-1-.1-.7-.6 1.1-1.5 2.3-1.3 2.5-1.7 1.5-3.9-.7-1.4-2.3-2.8-3.7-3.1-2.2-.6-2.3-.8-.7-1.6 3.3-1.9 1.4-4.9-3-4.9-1 0-1.3.6-.8 1.7.5 1.4.3 1.5-.6.6-1-1-1.9-3.9-3.6-12.6-.3-1.6-1.3-3.1-2.2-3.5-2.4-.9-3.7-2.4-4.7-5.6-.7-2-2.1-3.2-4.9-4.2-5-1.7-5.5-1.7-5.5-.1zm14 23.2c0 2-5.1 6.5-7.3 6.5-1.4 0-1.8-.6-1.5-2.6.2-1.5 1-3 1.8-3.4.8-.4 2.4-1.2 3.5-1.7 2.3-1.2 3.5-.8 3.5 1.2zm10.4 16.5c-.7.7-1.9.7-3.5.1-2.3-.9-2.2-1 1.1-1 2.3-.1 3.1.2 2.4.9zm-23.9 20c-.3.5-1.3 1-2.1 1s-1.4-.5-1.4-1c0-.6.9-1 2.1-1 1.1 0 1.7.4 1.4 1zm4.5 19.9c0 .4-1.1.6-2.5.3-1.4-.2-2.5-.6-2.5-.8 0-.2 1.1-.4 2.5-.4s2.5.4 2.5.9z"/><path d="M394 303c-.8.5-3.4 1.7-5.7 2.6-2.4 1-4.3 2.4-4.3 3.1 0 .7-1.2 1.5-2.7 1.8-6.5 1.4-8.5 4.9-6.4 11.3 1.5 4.4.9 6.2-2 6.2-1 0-1.9.4-1.9 1 0 .5.7 1 1.5 1 1.1 0 1.5 1.1 1.5 4 0 2.3.7 5.2 1.6 6.5 1.5 2.3 1.5 2.5-.2 2.6-1.1 0-1.4.3-.6.6 1.7.7 1.5 4-.4 4.7-2.4.9-12.2.7-12.8-.3-.3-.4-2.6-1.4-5.1-2.1-6-1.7-7.7-.3-4.6 3.6 1.1 1.5 2.1 3.5 2.1 4.5 0 1.1.4 1.9.9 1.9s1.3 1.3 1.9 2.8c.6 1.7 3.2 4.4 6.7 6.8 11.2 7.6 15.9 9.5 27.3 10.4 9.8.9 12.8.4 19.3-3.1 2-1 4.6-1.9 5.8-1.9 1.1 0 2.1-.5 2.1-1 0-.6.8-1.4 1.8-1.7 2.3-.9 4.9-4.1 6.7-8.2.8-1.8 1.5-3.5 1.5-3.7 0-.2-1.6-1-3.6-1.9-2.9-1.2-3.3-1.8-2.6-3.2.5-1 1-3.7.9-6.1 0-3.5.6-4.9 3.1-7.5 2.4-2.5 3.4-4.7 4.2-9.7.7-3.6 1.4-7.7 1.7-9.2.4-2.2-.2-3.4-3.1-6.1-2-1.9-3.6-3.8-3.6-4.3s-1.5-1.8-3.3-2.8c-2.4-1.5-5.6-2-12.7-2.2-5.2-.2-10.4-.5-11.5-.8-1.1-.2-2.7 0-3.5.4zM228.7 306.7c-1.3 1.2-.7 2.3 1.3 2.3 1.1 0 2-.7 2-1.5 0-1.5-2.1-2.1-3.3-.8zM225.6 314.5c-.4 1.2.3 1.5 2.9 1.5 3.6 0 4.7-1.3 1.9-2.4-2.6-1-4.2-.7-4.8.9zM246.5 314c-.3.5-.1 1 .4 1 .6 0 1.1-.5 1.1-1 0-.6-.2-1-.4-1-.3 0-.8.4-1.1 1zM235 319c0 .5.5 1 1 1 .6 0 1-.5 1-1 0-.6-.4-1-1-1-.5 0-1 .4-1 1zM224.6 321.5c-.3.8-1.7 1.5-3.1 1.5-1.6 0-2.5.6-2.5 1.5s-1.2 2-2.6 2.5c-3 1.2-2.7 3 .6 4.7 1.8.9 2.3 2 2.5 6 .1 2.6.6 6.9 1 9.5.5 3.4.4 4.8-.4 4.8-.6 0-1.1 1-1.1 2.2.1 3 6.3 7 9.9 6.5 1.4-.2 2-.2 1.4 0-.7.3-1.3.9-1.3 1.4 0 .5-1.1.9-2.5.9-1.6 0-2.5-.6-2.5-1.5 0-1.8-.2-1.9-4.5-.1-4.8 2-4.6 4.6.3 4.6 2 .1 5.1.7 6.7 1.4l3 1.3-2.7 1.3c-3.2 1.5-3.6 3.5-1.1 4.9 1.7.9 1.6 1.1-.1 3-1.1 1.2-1.6 2.9-1.3 4.1.3 1.3-.2 2.5-1.5 3.4-1.4 1-1.8 2-1.3 3.5.3 1.2 1.1 2.1 1.6 2.1 2.2 0 .6 2.9-2.1 3.9-1.6.5-3 1.2-3 1.5 0 1.6 2.5 5.6 3.5 5.6 2.1 0 6.8 5.8 6.3 7.8-.3 1.1-.1 2.7.4 3.6.7 1.2.5 2.4-.6 4.1-3.6 5.5-1 10.7 5.3 10.4 4.5-.3 6.1.5 5.4 3-.3 1 0 2.2.6 2.5.6.4 1.1.2 1.1-.3 0-.6.9-1.1 2-1.1 2.5 0 2.6 2.7.2 3.4-2.7.9-4.6 5-3.8 8.1.4 1.6.2 3.3-.5 4.1-.9 1.1-.8 1.8.3 3.2 1.8 2 3 13.2 1.5 13.2-.6 0-.1 1 1 2.2 2.4 2.7 3.5 6.8 2.4 8.7-1.1 1.7-3.1.6-3.1-1.8 0-1.4-.6-1.7-2.4-1.4-2.8.6-2.5 2.9.6 3.8 1.4.5 1.8 1.4 1.6 3.3-.2 2.1-1 2.8-3.8 3.5-3.4.8-3.5.9-3.7 5.8-.1 2.8-.9 5.6-1.7 6.5-1.1 1.1-1.3 2.1-.6 3.9.6 1.6.6 2.7-.2 3.1-1.4.9-2.9-1.7-2.2-3.9.3-1.1 0-1.7-1-1.7-.9 0-1.6.8-1.6 2 0 1.3-.5 1.8-1.5 1.4-1.2-.5-1.5.5-1.5 6 0 3.7-.4 6.6-1 6.6-.5 0-1-1.8-1-4s-.4-4-1-4c-1.5 0-1.2 7.1.5 10.4.8 1.5 1.5 3.5 1.5 4.2 0 1.7-3.7 1.9-4.3.1-.3-.6-.6-.1-.6 1.3-.1 1.8-1.2 3.1-4.1 4.8-2.2 1.2-4 2.9-4 3.7 0 .8-.8 1.5-1.8 1.5-3.5 0-6.8 5.3-3.9 6.3.6.2-.5.9-2.6 1.5-2.8.8-4.7.7-7.4-.2-3.3-1.1-3.4-1.3-1.9-2.8.9-.9 1.6-1.9 1.6-2.2 0-1-3-.7-4.3.4-7 5.9-8.3 6.3-9.7 2.6-.5-1.4-1.9-2.6-3.2-2.8-1.5-.2-2.4-1-2.4-2.3-.1-1.1-.2-2.5-.3-3.2-.1-.7-1.6-1.6-3.3-2.1-2.3-.6-3.4-1.5-3.6-3-.2-1.6-1-2.2-2.8-2.2-1.3 0-2.4-.4-2.4-.9s-.9-1.3-2.1-1.6c-1.6-.5-1.9-1.2-1.5-3 .4-1.5 0-2.9-1-3.9-2.1-2.1-3.4-2-3.4.3 0 2.1-4.6 3.7-7.7 2.7-1-.3-3 0-4.5.8-1.8 1-2.9 1.1-3.7.3-.7-.7-.8-.3-.4 1.2.4 1.6-.1 2.7-1.6 3.7-3.7 2.7-1.9 5.3 3.1 4.5.4 0 1.2.8 1.8 1.9.9 1.6.8 2-.5 2-.9 0-1.9.8-2.2 1.7-.4 1-1.3 2.3-2.1 2.9-.8.6-1.2 1.6-.8 2.2.5.8-.2 1.2-1.8 1.2-2.9 0-3.6 2.7-1.1 3.6.8.4 1.5 1.7 1.5 3 0 1.7.6 2.4 1.9 2.4 1.5 0 2-.8 2.3-3.7l.3-3.6 3.1 2.6c2.4 2 3 3.3 2.7 5.1-.6 2.7 2.1 7.4 3.2 5.7.3-.6 1-1.1 1.5-1.1 1 0 5 8.1 5 10.2 0 .9.7 3.2 1.5 5.3 1.7 3.9.8 6.5-2.1 6.5-.8 0-1.9 1.1-2.5 2.4-.8 1.6-1.7 2.2-3 1.9-1-.3-1.9-.9-1.9-1.3 0-.5-1-1-2.2-1.2-1.8-.2-2.3-1-2.4-3.6-.1-4.5-2-5.5-5.4-3.1-2.1 1.6-3.1 1.8-5.3 1-2.7-1.1-3.6-3.8-1.8-5.7.5-.5 1.3-2.6 1.7-4.8.6-3.6.5-3.7-1.3-2.8-2.8 1.5-4.3-.3-3.6-4.4.6-3.5-.3-4-5.9-3.5-3.6.4-1.2-5 5-11.5 1.2-1.2 1.2-1.7.1-3-1.1-1.4-1-1.8.6-3 1-.8 2.5-1.4 3.2-1.4.7 0 1.3-.7 1.3-1.5 0-1.3-.7-1.5-3.8-.9-2 .4-4.8 1.1-6.1 1.6-3.6 1.3-4.7-.5-2-3.1 1.3-1.1 2.6-2.1 3.1-2.1.4 0 .8-1.5.7-3.3-.1-2.8-.2-2.9-.8-.8-.6 2.2-.7 2.2-2.1.7-1.1-1.4-1.1-2.2-.2-3.6 1.5-2.4.5-5.2-1.7-4.8-.9.2-1.6.8-1.6 1.3 0 1-1.5 5.3-4.3 11.8-1.4 3.3-1.4 4-.1 4.8 1.2.7 1.1 1.3-.4 4.1-2 3.6-4 11.8-3.8 16.3 0 1.6.1 3.9.1 5s-.3 4-.7 6.5l-.8 4.5-10.5.3c-5.8.1-13.3.9-16.8 1.8-3.4.8-7.2 1.2-8.3.9-2.4-.8-8.5 2.1-9.4 4.4-.4.9.2 2.1 1.2 2.8 4.3 3 6.2 4.9 6.3 6 0 .6.4 1.4.9 1.7 3.1 2 15 3.7 31 4.6 10.2.6 19.8 1.5 21.2 2.1 1.4.6 8.9 1.4 16.5 1.9s17.5 1.4 21.9 2.1c9.4 1.3 12.3.5 26.7-6.9 5.3-2.7 10.5-4.6 13-4.8 6.6-.5 19 1.4 32.8 5.1 18 4.8 40.2 8.3 48.7 7.7 3-.3 5-6.8 2.8-9.2-.8-.9-1.5-2.1-1.5-2.7 0-.6-.6-1.6-1.4-2.2-.8-.6-1.9-3.1-2.5-5.5-.7-3-1.8-4.6-3.6-5.4-2.5-1.1-3.4-3.2-1.5-3.2 1.4 0 1.3-8.7-.1-9.2-.6-.2-1.4-1.9-1.8-3.8-.6-2.9-1.2-3.6-3.6-4-2.3-.4-3-1.1-3.2-3-.6-8.5-2.1-14.1-4.5-16.3-3.7-3.5-5.7-6.9-6.2-10.6-.2-1.7-.6-3.4-.9-3.8-.4-.3 0-1.8.8-3.4.8-1.5 1.4-4.9 1.3-7.6-.1-2.6.1-5.6.6-6.6.6-1.2.4-1.7-.8-1.7-.9 0-1.6-.6-1.6-1.4 0-.7-1.1-2.5-2.5-4-1.8-2-2.2-3.2-1.6-4.8 1.3-3.5 2.7-3.1 4.4 1.2.9 2.3 2.2 4 3.1 4 .9 0 1.6.4 1.6 1 0 .5.8 1 1.8 1s2.7.7 3.9 1.5c1.8 1.2 2.7 1.3 4.8.3 1.6-.7 2.9-.8 3.5-.2 1 1 17.7 0 18.8-1.1.3-.3 0-1.1-.6-1.7-1.9-1.9-1.4-2.9.7-1.6 1.6 1 2.7.4 7.9-4.2l6.1-5.2-2.1-1.8-2.2-1.7 2.2-.7c1.2-.4 2.6-.5 3.1-.1 1.8 1 3.9-4.8 4.6-12.8.5-5.5 1.1-7.7 2.1-7.7.9 0 1.4-1.2 1.4-3.4 0-1.9.5-3.8 1-4.1 1.7-1.1 1.1-2-2.4-3.9-2.6-1.4-3.8-1.6-5.4-.7-2.9 1.6-3.4 1.4-2.2-.8.5-1.1 1-3.9 1-6.3 0-3.1.3-3.9 1-2.8 1.4 2.2 4.6-.1 4.2-3-.5-3.5-5.4-9.6-9.2-11.6-1.9-1.1-4.5-2.8-5.8-3.9-1.2-1-3.7-2.4-5.5-3-1.8-.5-3.3-1.7-3.3-2.5-.1-.8-.2-2-.3-2.6-.1-.8-3.4-1.4-8.8-1.8-7.7-.5-11.7-.9-16-1.4-.6-.1-1.3-1.4-1.5-3-.2-2.1-.9-2.8-2.9-3-1.5-.2-3.5-1.2-4.4-2.2-1.6-1.8-1.5-2 1.9-4.2 4.1-2.7 4.5-3.8 1.3-3.8-2.8 0-4.7-1.7-4.7-4.2 0-1.1-.7-1.8-2-1.8-1.6 0-2-.7-2-3 0-1.8-.5-3-1.3-3-1.6 0-5.7-3.7-5.7-5.1 0-.6.5-.7 1-.4 1.5.9 4-1.4 3.3-3.1-.3-.8-1.1-1.4-1.8-1.4s-1.8-.6-2.4-1.4c-.9-1.1-.3-1.4 3.1-1.9 7.4-1.1 9.3-2.5 9.3-6.9 0-2.9-.4-3.8-1.6-3.8-1 0-1.9-.3-2.2-.8-.2-.4-.2-.1 0 .7.4 1.6-1.4 3.1-3.9 3.1-2.3 0-2.3-1.5.1-3.9 2-2 4.5-6.1 3.9-6.5-.9-.5-5.5-2.5-7.1-3-1-.3-2.7-.1-3.8.5-1.1.6-3.4.7-5.1.4-2.7-.6-2.9-1-2.4-3.9.5-2.8.3-3.4-2-4.5-2.6-1.1-2.6-1.2-.9-3.2 1.8-1.9 1.8-2-.1-3.3-1-.8-2.3-1.2-2.8-.8-.5.3-.6-.2-.3-1.2.4-1 .7-2 .7-2.2 0-.2.8-.4 1.9-.4 1 0 2.4-.7 3.1-1.5 1.1-1.3.9-1.5-1.3-1.5-1.4 0-2.7.7-3.1 1.5zm15 28.2c-1 1-1.9-.5-1-1.8.6-1.1.8-1.1 1.2 0 .2.7.1 1.5-.2 1.8zm-4.6-.2c1.5 1.8 1.3 2-1.6 2.9-2.5.8-4.3-2.2-2.2-3.6 1.8-1.1 2.4-1 3.8.7zm-2 8c0 .8-.4 1.5-1 1.5-.5 0-.7-.7-.4-1.5.4-.8.8-1.5 1-1.5.2 0 .4.7.4 1.5zm-.5 7.5c.3.5-.1 1-1 1s-1.3-.5-1-1c.3-.6.8-1 1-1 .2 0 .7.4 1 1zm12.5 24.4c0 .3-.4.8-1 1.1-.5.3-1 .1-1-.4 0-.6.5-1.1 1-1.1.6 0 1 .2 1 .4zM239 497c0 .5-.4 1-1 1-.5 0-1-.5-1-1 0-.6.5-1 1-1 .6 0 1 .4 1 1zm-7.7 14.7c-.7.2-1.9.2-2.5 0-.7-.3-.2-.5 1.2-.5s1.9.2 1.3.5zM134.5 538c.3.5.1 1-.4 1-.6 0-1.1-.5-1.1-1 0-.6.2-1 .4-1 .3 0 .8.4 1.1 1zm9.5 40.4c0 1.6-3.7 3.2-4.8 2.1-.7-.7 2.5-3.5 4-3.5.4 0 .8.6.8 1.4zm10.6 1.3c-.4 3.6-3.6 4.5-3.6 1 0-2.7.7-3.7 2.6-3.7.8 0 1.2 1 1 2.7zm-2.9 5.9c-.3.3-1.2.4-1.9.1-.8-.3-.5-.6.6-.6 1.1-.1 1.7.2 1.3.5zM303.3 322.7c-1.4.5-1.8 3.3-.5 3.3.5 0 1.6-.6 2.6-1.3 1.5-1.1 1.6-1.5.5-1.9-.8-.3-2-.3-2.6-.1zM240 324.1c0 .5.5.7 1 .4.6-.3 1-.8 1-1.1 0-.2-.4-.4-1-.4-.5 0-1 .5-1 1.1z"/><path d="M230.3 328.2c.2.7 1.6 1.3 3.2 1.3s3-.6 3.3-1.3c.2-.8-.8-1.2-3.3-1.2s-3.5.4-3.2 1.2zM246.5 329c.3.5.8 1 1.1 1 .2 0 .4-.5.4-1 0-.6-.5-1-1.1-1-.5 0-.7.4-.4 1zM238 334.5c-.7.8-2 1.5-2.8 1.5-1.2 0-1.3.3-.4 1.2.8.8 1.5.8 2.4.1.7-.6 2.4-1.3 3.8-1.5 2.5-.3 2.5-.3.4-1.6-1.8-.9-2.4-.9-3.4.3zM181.8 380.4c-2.2 2.2-2.4 6.6-.3 6.6 1.9 0 2.7-2 2.3-5.6-.3-2.7-.4-2.7-2-1zM177.8 391.1c-1 .5-1.8 1.8-1.8 2.7 0 1-.5 2.3-1.2 3-1.5 1.5.7 4.3 2.8 3.5.8-.3 2.8 0 4.5.7 2.5 1.1 3.2 1.1 3.9 0 1.1-1.7.2-4-1.5-4-2.2 0-2.7-1.9-1.1-3.6.9-.9 1.4-2 1.1-2.5-.8-1.2-4.5-1.1-6.7.2zM190 396.2c0 4.8 5 8.9 6.4 5.3.3-.8.2-1.5-.3-1.5-.4 0-.7-1-.7-2.3.1-1.7-.5-2.3-2.6-2.5-1.9-.2-2.8.1-2.8 1zM208 397c0 .5.5 1 1.1 1 .5 0 .7-.5.4-1-.3-.6-.8-1-1.1-1-.2 0-.4.4-.4 1zM179.3 402.7c-.7.3-1.3 1.4-1.3 2.6 0 1.6.9 2.5 3.5 3.3 2 .6 3.8.7 4.1.3.3-.5-.2-.9-1-.9-.9 0-1.6-.8-1.6-1.9 0-2.2-2-4-3.7-3.4zM206.4 409.6c.3.9.6 1.9.6 2.2 0 .9 2-2.1 2-3.1 0-.4-.7-.7-1.6-.7-1.1 0-1.4.5-1 1.6zM218.6 410.2c1 1.3 1.9 2.4 1.9 2.5 0 .1.6-.2 1.3-.6 2-1.2.2-4.1-2.6-4.1-2.5 0-2.5 0-.6 2.2zM472 414.6c0 2.4-.2 2.5-4.6 2.3-4-.3-5 .1-6.8 2.3-1.1 1.4-3.1 2.9-4.3 3.2-1.1.4-2.7 1.4-3.5 2.3-1.3 1.6-1.9 7.3-.7 7.3s1.8 4.5.8 5.5c-.6.5-2.4 1-4.2 1-4.4 0-5 3.4-1 6 4.5 3 5 3.8 5.6 8.9.4 2.6 1.1 5.4 1.7 6.1.6.7.8 2.1.4 3.1-.4 1.5-.4 1.6.4.5 1.5-2.1 3.9-.6 4.7 2.8.7 3.4 3.8 5.8 8.2 6.2 2.6.3 4-.5 7.8-4 3.4-3.2 4.4-4.8 4-6.2-.4-1.1-.2-2.6.4-3.3 1.2-1.5 2.3-13.5 2.3-26.1 0-5 .5-9.8 1-10.8 1.5-2.9.1-5.2-4.7-7.5-6-2.9-7.5-2.8-7.5.4zM181.5 414.6c-1.5.8-3.1 1.4-3.7 1.4-1.4 0-5.2 3.9-4.5 4.6.3.3 1.9.2 3.4-.3 3.2-1.2 7 .1 7.5 2.5.2 1 1.2.2 3.1-2.4 1.5-2.2 2.7-4.3 2.7-4.6 0-.3-1.3-1.1-2.9-1.6-2.2-.8-3.6-.7-5.6.4zM221.1 425.4c-.9 1-.8 1.5.3 1.9 1.6.7 2.6-.1 2.6-2 0-1.7-1.4-1.7-2.9.1zM163.5 426c.3.5.8 1 1.1 1 .2 0 .4-.5.4-1 0-.6-.5-1-1.1-1-.5 0-.7.4-.4 1zM184 428c0 1.9.3 2.1 1.2 1.2.9-.9.9-1.5 0-2.4-.9-.9-1.2-.7-1.2 1.2zM159.7 430.4c-.6 1.4 0 2.6 1.3 2.6.3 0 .6-.9.7-2 .2-2.3-1.2-2.7-2-.6zM216 439c0 .5.7 1 1.5 1s1.5-.5 1.5-1c0-.6-.7-1-1.5-1s-1.5.4-1.5 1zM159 444c0 1.3 2.8 2.5 3.8 1.6.3-.4 0-1.1-.8-1.6-2-1.3-3-1.2-3 0zM218.8 445.7c-.2.4-.4 1.7-.4 2.7.1 2.7 2.6 3.3 2.6.7 0-1.2 0-2.4.1-2.8.1-1.1-1.8-1.6-2.3-.6zM447.7 451.7c-1.3 1.2-.7 4.3.8 4.3.8 0 1.5-.6 1.5-1.3 0-1.8-1.5-3.8-2.3-3zM448.5 458c-.7 1.2.2 3 1.6 3 1.2 0 1.2-2.7 0-3.5-.5-.3-1.2-.1-1.6.5zM217.3 458.7c-.7.2-1.3 1.3-1.3 2.4 0 1.5.4 1.7 2.3 1 1.2-.5 2.2-1.4 2.2-2.1 0-1.5-1.4-2.1-3.2-1.3zM229 460.5c0 .8.7 1.5 1.5 1.5s1.5-.7 1.5-1.5-.7-1.5-1.5-1.5-1.5.7-1.5 1.5zM177.9 466c2.8 2.4 4.5 2.6 3.7.4-.3-.9-.6-1.8-.6-2 0-.2-1.2-.4-2.7-.4l-2.8.1 2.4 1.9zM208.7 466.3c-2.1 1.3-3.5 2.6-3.1 3 1.2 1.2 2.4.8 2.4-.8 0-.8.9-1.5 1.9-1.5 1.1 0 2.3-.5 2.6-1.1 1.3-2-.1-1.8-3.8.4zM222 485.7c-.8 1.3-2 2.3-2.7 2.3-1.5 0-1.5.2-.7 2.4.7 1.8 3.6 2.1 6.5.6 2.2-1.2 2.5-3 .5-3-.8 0-1.6-1-1.8-2.3l-.3-2.2-1.5 2.2zM411 489.1c0 .5.5.7 1 .4.6-.3 1-.8 1-1.1 0-.2-.4-.4-1-.4-.5 0-1 .5-1 1.1zM210 500c0 2.2.5 4 1 4 .6 0 1-1.8 1-4s-.4-4-1-4c-.5 0-1 1.8-1 4zM406.9 498.5c-.2 1.8-1 3-1.9 3-.8 0-2 1.6-2.6 3.5-.7 1.9-1.6 3.5-2.2 3.5-1.8 0-2.3 1.2-2.4 5.4 0 3.8-.3 4.3-2.9 4.8-1.9.3-2.9 1.2-3.1 2.7-.2 1.6-.9 2.1-2.9 1.9-2-.1-2.8.5-3.7 3-.7 1.9-.8 3.5-.2 4.2 1.6 1.9-1 3.8-2.9 2.1-.9-.8-2.8-1.8-4.3-2.1-2.2-.6-2.8-.4-2.8.9 0 .9-1.1 2.1-2.5 2.6-1.8.7-2.3 1.4-1.8 2.7.5 1.5.3 1.6-.7.6-1-.9-1.7-1-2.7-.2-1.7 1.5-1.7 3.4.2 4.9.8.7 1.5 2.1 1.5 3 0 1 .6 3.1 1.4 4.7 2.8 5.5 4.5 10.9 5.6 17.7 1.2 7.6 2.5 10.7 6.9 17.6 1.6 2.5 3 5.6 3 7 .2 3.7 1.6 5.6 3.3 4.3.9-.8 3.2-.7 8.3.4 6.9 1.5 15.2 1.8 18.9.7 1.6-.5 1.4-.9-1.3-2.5-3.6-2.2-4.4-4.7-3.9-12.8.2-4.3-.1-6.1-.9-6.1-.7 0-1-.6-.7-1.4.3-.8.1-2.3-.5-3.3-.9-1.6-1.1-1.4-1.2 1.2-.1 3-.1 3-.9.5-1.1-3.5-1.2-9.8-.1-10.4.5-.4 1.1 0 1.4.6.6 1.7 1.7.6 2.2-2.3.3-1.2-.1-3-.8-3.8-2.1-2.5-5.8-18.5-5.8-25.1 0-7.6.2-8.2 2.3-7.7 1.8.5 2 .2 1.4-2.5-.3-1.7 0-4.3.8-6.2 3.4-7.7 3.8-16.6.7-16.6-.5 0-1.1-.8-1.4-1.8-.2-1-.5-.6-.8 1.3zm.8 12.7c-.3.7-.5.2-.5-1.2s.2-1.9.5-1.3c.2.7.2 1.9 0 2.5zm-5.9 68.7c2.3 4 2.9 10.5 1.3 13-1.4 2.3-10.1 1.5-11.9-1-.7-1-2-1.9-2.8-1.9-.8 0-1.4-.7-1.4-1.6 0-1 .6-1.3 1.8-1 1.9.6 5.2-3.7 5.2-6.7 0-1.4 3.5-4.7 5-4.7.4 0 1.6 1.7 2.8 3.9zM144 500.5c0 1.4.6 2.5 1.3 2.5.6 0 2.4.7 4 1.4 2.3 1.3 2.7 1.3 2.7 0 0-.8.9-1.4 1.9-1.4 1.9 0 3.5-2.3 2.4-3.4-.3-.3-1.4-.1-2.4.5-1.3.7-2.9.5-5.5-.6-4.6-1.9-4.4-1.9-4.4 1zM144 505c0 .5.4 1 .9 1 .6 0 1.3-.5 1.6-1 .3-.6-.1-1-.9-1-.9 0-1.6.4-1.6 1zM138.5 507c-.4.7-.3 1.6.3 2.2 1.4 1.4 4.7.6 4.7-1.2 0-1.8-4-2.6-5-1zM198.5 515.9c-.3.5-.1 1.2.5 1.6.5.3 1-.1 1-.9 0-1.8-.6-2.1-1.5-.7zM210.5 518c-.9 1.5-.1 2.3 2.1 1.8 1.5-.3 1.6-.4.1-1.6-1.1-.9-1.7-1-2.2-.2zM168 520c0 2.3 2.2 2.7 3.9.6.9-1.1.8-1.5-.5-2-2.6-1-3.4-.7-3.4 1.4zM202.7 524.6c-1.4 1.5-.6 3.4 1.4 3.4 1.4 0 1.9-.5 1.7-1.7-.3-1.8-2-2.7-3.1-1.7zM123 543c0 .5.7 1 1.5 1s1.5-.5 1.5-1c0-.6-.7-1-1.5-1s-1.5.4-1.5 1zM128 547.7c0 2.5.1 2.6 1.6 1.1.9-.9 1.3-2.1 1-2.7-1.3-2-2.6-1.1-2.6 1.6zM356.5 615c-.8 1.4.3 3 2.1 3 1.6 0 1.6-.2.8-2.4-.7-1.8-2-2.1-2.9-.6z"/></svg>