<?xml version="1.0" standalone="no"?>
<!DOCTYPE svg PUBLIC "-//W3C//DTD SVG 20010904//EN"
 "http://www.w3.org/TR/2001/REC-SVG-20010904/DTD/svg10.dtd">
<svg version="1.0" xmlns="http://www.w3.org/2000/svg"
 width="640.000000pt" height="640.000000pt" viewBox="0 0 640.000000 640.000000"
 preserveAspectRatio="xMidYMid meet">
<metadata>
Created by potrace 1.11, written by Peter Selinger 2001-2013
</metadata>
<g transform="translate(0.000000,640.000000) scale(0.100000,-0.100000)"
fill="#000000" stroke="none">
<path d="M2937 5754 c-3 -3 -38 -10 -77 -14 -40 -4 -76 -12 -82 -18 -5 -5 -17
-54 -25 -108 -8 -55 -20 -109 -25 -121 -6 -11 -7 -26 -4 -32 9 -14 -23 -82
-46 -99 -22 -16 -23 -35 -3 -70 8 -15 19 -38 25 -52 5 -14 14 -32 19 -40 5 -8
16 -40 26 -71 16 -52 16 -58 1 -88 -9 -17 -14 -36 -11 -41 4 -6 1 -25 -6 -43
-10 -28 -9 -42 6 -86 10 -31 15 -65 11 -84 -3 -18 0 -51 7 -75 9 -30 11 -60 5
-95 -4 -29 -12 -83 -18 -121 -5 -38 -17 -77 -26 -87 -9 -10 -18 -35 -19 -56
-1 -21 -7 -49 -13 -63 -16 -41 -34 -198 -23 -218 10 -19 3 -81 -11 -99 -6 -8
-6 -24 1 -45 6 -18 13 -54 16 -80 4 -27 11 -48 16 -48 6 0 9 12 7 27 -3 22 2
28 32 38 38 13 49 39 31 74 -7 13 -8 22 -1 26 20 12 11 52 -12 59 -22 6 -22 6
7 24 21 13 31 28 33 48 1 15 9 32 17 37 8 4 15 13 15 20 0 7 14 25 30 40 17
16 30 34 30 41 0 24 37 47 76 48 22 1 58 -8 83 -20 25 -12 46 -22 48 -22 2 0
3 18 3 40 0 34 3 40 21 40 16 0 19 4 14 20 -5 17 -2 20 21 20 25 0 26 -2 20
-32 -4 -23 -1 -43 11 -66 18 -33 18 -34 -4 -52 -23 -18 -31 -50 -14 -50 27 0
51 -153 28 -177 -17 -16 -4 -34 34 -49 30 -13 38 -21 33 -33 -17 -43 -15 -50
23 -74 81 -53 218 -56 280 -7 14 11 31 20 37 20 6 0 34 18 63 39 28 22 73 47
98 55 69 24 123 54 135 75 13 25 33 208 26 237 -9 33 -29 30 -43 -6 -6 -16
-20 -33 -30 -36 -10 -4 -38 -16 -63 -27 -24 -12 -55 -20 -67 -19 -28 2 -80 35
-64 40 6 2 11 10 11 18 0 17 -31 19 -47 3 -8 -8 -19 0 -39 27 -16 21 -46 56
-66 77 -42 43 -47 63 -21 82 14 11 15 17 7 36 -6 13 -19 51 -29 84 -10 33 -25
67 -32 76 -16 19 -17 59 -3 59 14 0 56 46 75 82 13 24 18 26 41 18 21 -9 29
-6 45 12 11 14 18 18 19 9 0 -9 11 -12 40 -9 33 3 40 0 40 -14 0 -22 28 -24
36 -3 9 23 23 18 37 -12 6 -15 28 -42 48 -60 24 -21 42 -50 50 -79 13 -43 32
-64 46 -51 3 3 11 32 18 64 7 32 20 81 28 108 22 70 35 120 51 195 27 128 55
188 101 218 44 28 61 28 79 -1 19 -29 35 -161 25 -206 -8 -36 3 -116 23 -161
6 -14 12 -34 14 -45 2 -11 7 -35 10 -53 4 -22 11 -32 22 -30 16 3 24 15 42 66
11 28 17 32 47 32 19 0 48 9 64 21 36 26 100 19 127 -14 10 -12 31 -29 46 -37
16 -8 32 -22 36 -30 4 -8 14 -30 23 -48 15 -30 15 -37 2 -70 -9 -20 -23 -43
-33 -50 -13 -10 -14 -16 -5 -31 10 -15 9 -22 -2 -31 -21 -18 -18 -64 5 -85 20
-18 20 -18 -2 -34 -13 -8 -34 -28 -46 -43 -27 -32 -158 -140 -191 -158 -19
-10 -28 -8 -62 16 -41 28 -118 48 -133 34 -5 -5 -2 -25 6 -47 9 -21 19 -66 23
-101 7 -59 10 -65 44 -86 20 -12 50 -28 66 -34 17 -7 63 -50 103 -96 71 -82
117 -110 134 -83 5 8 13 8 31 0 21 -10 28 -8 46 13 27 31 27 40 -6 70 l-28 25
48 -6 c26 -3 46 -2 45 2 -4 13 24 83 34 83 4 0 8 11 8 24 0 17 -9 27 -30 36
-31 13 -34 21 -24 82 5 29 12 39 36 47 26 9 41 32 40 58 -1 13 -45 21 -63 12
-10 -5 -24 -3 -35 5 -16 12 -17 17 -5 39 8 14 11 32 8 40 -4 11 6 16 44 21 46
6 49 8 49 36 0 17 5 30 10 30 6 0 13 8 17 18 8 23 44 62 57 62 16 0 34 -46 25
-62 -5 -10 3 -27 24 -51 l32 -37 50 16 c28 9 54 20 59 25 5 4 22 5 39 2 22 -5
33 -1 44 12 16 23 17 36 1 33 -8 -2 -15 15 -18 49 -3 29 -11 58 -18 65 -17 17
-15 39 3 32 8 -4 15 -2 15 4 0 5 -6 12 -14 15 -19 8 -13 98 10 132 15 22 14
25 -5 42 -16 13 -21 29 -21 63 0 25 -6 54 -13 65 -15 25 -15 48 0 67 14 16 18
63 8 93 -8 26 28 75 55 75 26 0 35 19 17 33 -9 7 -17 33 -20 61 -4 53 -16 65
-50 48 -12 -5 -44 -20 -72 -32 -27 -12 -69 -36 -93 -52 -23 -16 -55 -30 -70
-31 -23 -2 -28 2 -30 26 -4 32 21 77 42 77 8 0 29 18 47 41 19 22 68 76 109
120 70 74 79 80 134 92 47 9 60 9 64 -1 2 -6 14 -12 27 -12 13 0 27 -5 30 -11
4 -6 13 -8 21 -5 17 6 28 -10 13 -19 -6 -4 -8 -18 -5 -31 5 -17 1 -26 -14 -34
-25 -14 -26 -32 0 -48 26 -16 26 -38 -1 -45 -15 -4 -20 -11 -15 -22 3 -9 6
-30 6 -46 0 -23 5 -29 21 -29 21 0 49 51 49 91 0 11 7 36 16 54 12 25 13 38 5
53 -8 15 -6 28 6 53 10 19 18 57 18 84 1 92 -58 114 -267 98 -77 -6 -77 -6
-155 -69 -43 -36 -91 -68 -108 -73 -16 -5 -55 -19 -85 -30 -30 -12 -69 -21
-86 -21 -33 0 -84 38 -84 64 0 17 -60 56 -86 56 -11 0 -29 7 -41 15 -12 8 -58
22 -103 29 -45 8 -90 22 -99 30 -10 9 -25 16 -33 16 -9 0 -21 7 -28 15 -7 9
-20 14 -29 12 -9 -2 -28 2 -42 9 -28 14 -53 15 -204 14 -63 -1 -95 -6 -106
-16 -12 -11 -23 -12 -42 -5 -29 11 -37 6 -37 -23 0 -20 -1 -20 -20 4 l-20 25
-23 -27 c-20 -25 -30 -28 -79 -28 -46 0 -60 -4 -71 -20 -14 -20 -15 -20 -45
-3 -30 17 -30 17 -56 -14 l-27 -32 -67 36 c-37 20 -104 70 -150 110 -56 49
-90 73 -107 73 -14 0 -42 7 -62 15 -37 16 -66 19 -76 9z m102 -163 c20 -16 43
-42 51 -58 8 -15 18 -32 23 -38 4 -5 21 -27 37 -49 16 -21 28 -42 25 -46 -3
-5 15 -26 40 -48 42 -36 59 -72 35 -72 -5 0 -10 -12 -10 -26 0 -20 -4 -25 -16
-20 -9 3 -21 6 -27 6 -6 0 -1 7 12 17 23 15 23 17 6 30 -11 7 -27 13 -38 13
-23 0 -67 34 -147 114 l-60 59 -30 -31 c-18 -19 -36 -29 -45 -26 -19 8 -29 45
-20 75 4 13 2 24 -5 29 -17 10 -3 30 21 30 13 0 19 7 19 24 0 17 8 26 33 34
49 15 56 14 96 -17z m-129 -207 c11 -12 10 -18 -6 -35 -17 -17 -22 -17 -38 -6
-15 11 -17 17 -7 35 14 26 33 28 51 6z m1569 -35 c-21 -13 -29 -11 -29 10 0
24 22 33 34 13 5 -9 4 -17 -5 -23z m-1601 -36 c5 -10 13 -39 16 -65 4 -27 11
-48 17 -48 17 0 9 -19 -11 -25 -17 -6 -20 -14 -17 -71 1 -35 5 -64 10 -64 17
0 5 -31 -17 -45 -22 -15 -27 -15 -55 -1 -16 9 -32 24 -35 33 -9 27 -5 145 5
171 6 16 6 29 -1 37 -8 9 -8 15 0 20 5 3 10 13 10 21 0 18 38 53 57 54 7 0 16
-8 21 -17z m2132 -748 c0 -8 -6 -15 -14 -15 -17 0 -28 14 -19 24 12 12 33 6
33 -9z m-110 -55 c0 -5 -4 -10 -10 -10 -5 0 -10 5 -10 10 0 6 5 10 10 10 6 0
10 -4 10 -10z"/>
<path d="M5042 4250 c0 -14 2 -19 5 -12 2 6 2 18 0 25 -3 6 -5 1 -5 -13z"/>
<path d="M2670 3667 c0 -7 4 -17 10 -23 12 -12 15 -53 6 -76 -6 -12 -2 -17 16
-20 20 -3 23 -8 20 -38 -5 -48 -30 -69 -81 -68 -23 0 -44 -2 -46 -4 -3 -2 -5
-28 -6 -56 -2 -40 3 -60 19 -82 27 -36 27 -51 4 -80 -16 -19 -21 -21 -41 -11
-22 12 -61 7 -61 -9 0 -4 11 -15 25 -24 33 -22 33 -46 0 -46 -14 0 -28 -7 -32
-15 -8 -22 1 -27 30 -16 20 8 28 6 42 -9 16 -17 16 -19 -2 -28 -10 -5 -27 -6
-38 -1 -32 12 -35 11 -35 -19 0 -15 -5 -33 -12 -40 -9 -9 -3 -12 30 -12 31 0
42 -4 42 -15 0 -8 -8 -15 -17 -15 -15 -1 -14 -4 6 -20 l23 -20 -23 -20 c-23
-18 -23 -19 -4 -21 11 0 34 0 51 1 18 1 35 -3 39 -9 3 -6 14 -11 23 -11 10 0
23 -9 30 -21 11 -17 19 -19 56 -14 35 6 46 4 53 -10 8 -13 25 -16 86 -16 42 0
77 -4 77 -9 0 -5 24 -10 53 -12 38 -2 51 -7 49 -17 -4 -21 18 -31 45 -20 32
12 103 1 128 -20 27 -23 93 -48 129 -50 16 -1 37 -8 46 -16 9 -8 23 -15 31
-15 8 0 19 -4 25 -9 5 -5 48 -11 97 -13 68 -3 87 -1 87 9 0 7 -7 13 -15 13 -8
0 -15 5 -15 11 0 7 -11 21 -23 33 -46 42 -117 144 -111 160 3 9 0 26 -8 39
-22 32 -28 88 -11 94 23 9 14 31 -19 47 -38 19 -38 19 -38 1 0 -7 8 -18 18
-24 13 -8 14 -12 5 -22 -10 -10 -15 -10 -27 0 -11 9 -20 10 -35 2 -21 -12 -51
-5 -51 11 0 5 9 12 20 15 19 5 19 7 -7 20 -17 9 -43 13 -64 10 -32 -4 -36 -2
-32 14 4 16 0 19 -26 19 -24 0 -34 6 -43 25 -13 30 -24 31 -40 6 -13 -21 -38
-17 -38 5 0 19 -34 18 -50 -1 -15 -18 -43 -19 -71 -4 -23 12 -16 29 12 29 10
0 19 5 19 10 0 6 -9 10 -20 10 -26 0 -26 26 0 33 14 4 18 10 14 22 -5 12 -14
15 -30 11 -27 -7 -32 5 -10 24 18 14 10 40 -13 40 -10 1 -7 6 11 15 23 13 25
17 15 39 -7 14 -23 28 -37 31 -22 6 -23 8 -7 16 33 19 14 49 -30 49 -10 0 -13
-6 -8 -17 5 -14 3 -15 -6 -6 -10 10 -19 39 -36 126 -3 16 -13 31 -22 35 -24 9
-37 24 -47 56 -7 20 -21 32 -49 42 -50 17 -55 17 -55 1z m140 -232 c0 -20 -51
-65 -73 -65 -14 0 -18 6 -15 26 2 15 10 30 18 34 8 4 24 12 35 17 23 12 35 8
35 -12z m104 -165 c-7 -7 -19 -7 -35 -1 -23 9 -22 10 11 10 23 1 31 -2 24 -9z
m-239 -200 c-3 -5 -13 -10 -21 -10 -8 0 -14 5 -14 10 0 6 9 10 21 10 11 0 17
-4 14 -10z m45 -199 c0 -4 -11 -6 -25 -3 -14 2 -25 6 -25 8 0 2 11 4 25 4 14
0 25 -4 25 -9z"/>
<path d="M3940 3370 c-8 -5 -34 -17 -57 -26 -24 -10 -43 -24 -43 -31 0 -7 -12
-15 -27 -18 -65 -14 -85 -49 -64 -113 15 -44 9 -62 -20 -62 -10 0 -19 -4 -19
-10 0 -5 7 -10 15 -10 11 0 15 -11 15 -40 0 -23 7 -52 16 -65 15 -23 15 -25
-2 -26 -11 0 -14 -3 -6 -6 17 -7 15 -40 -4 -47 -24 -9 -122 -7 -128 3 -3 4
-26 14 -51 21 -60 17 -77 3 -46 -36 11 -15 21 -35 21 -45 0 -11 4 -19 9 -19 5
0 13 -13 19 -28 6 -17 32 -44 67 -68 112 -76 159 -95 273 -104 98 -9 128 -4
193 31 20 10 46 19 58 19 11 0 21 5 21 10 0 6 8 14 18 17 23 9 49 41 67 82 8
18 15 35 15 37 0 2 -16 10 -36 19 -29 12 -33 18 -26 32 5 10 10 37 9 61 0 35
6 49 31 75 24 25 34 47 42 97 7 36 14 77 17 92 4 22 -2 34 -31 61 -20 19 -36
38 -36 43 0 5 -15 18 -33 28 -24 15 -56 20 -127 22 -52 2 -104 5 -115 8 -11 2
-27 0 -35 -4z"/>
<path d="M2287 3333 c-13 -12 -7 -23 13 -23 11 0 20 7 20 15 0 15 -21 21 -33
8z"/>
<path d="M2256 3255 c-4 -12 3 -15 29 -15 36 0 47 13 19 24 -26 10 -42 7 -48
-9z"/>
<path d="M2465 3260 c-3 -5 -1 -10 4 -10 6 0 11 5 11 10 0 6 -2 10 -4 10 -3 0
-8 -4 -11 -10z"/>
<path d="M2350 3210 c0 -5 5 -10 10 -10 6 0 10 5 10 10 0 6 -4 10 -10 10 -5 0
-10 -4 -10 -10z"/>
<path d="M2246 3185 c-3 -8 -17 -15 -31 -15 -16 0 -25 -6 -25 -15 0 -9 -12
-20 -26 -25 -30 -12 -27 -30 6 -47 18 -9 23 -20 25 -60 1 -26 6 -69 10 -95 5
-34 4 -48 -4 -48 -6 0 -11 -10 -11 -22 1 -30 63 -70 99 -65 14 2 20 2 14 0 -7
-3 -13 -9 -13 -14 0 -5 -11 -9 -25 -9 -16 0 -25 6 -25 15 0 18 -2 19 -45 1
-48 -20 -46 -46 3 -46 20 -1 51 -7 67 -14 l30 -13 -27 -13 c-32 -15 -36 -35
-11 -49 17 -9 16 -11 -1 -30 -11 -12 -16 -29 -13 -41 3 -13 -2 -25 -15 -34
-14 -10 -18 -20 -13 -35 3 -12 11 -21 16 -21 22 0 6 -29 -21 -39 -16 -5 -30
-12 -30 -15 0 -16 25 -56 35 -56 21 0 68 -58 63 -78 -3 -11 -1 -27 4 -36 7
-12 5 -24 -6 -41 -36 -55 -10 -107 53 -104 45 3 61 -5 54 -30 -3 -10 0 -22 6
-25 6 -4 11 -2 11 3 0 6 9 11 20 11 25 0 26 -27 2 -34 -27 -9 -46 -50 -38 -81
4 -16 2 -33 -5 -41 -9 -11 -8 -18 3 -32 18 -20 30 -132 15 -132 -6 0 -1 -10
10 -22 24 -27 35 -68 24 -87 -11 -17 -31 -6 -31 18 0 14 -6 17 -24 14 -28 -6
-25 -29 6 -38 14 -5 18 -14 16 -33 -2 -21 -10 -28 -38 -35 -34 -8 -35 -9 -37
-58 -1 -28 -9 -56 -17 -65 -11 -11 -13 -21 -6 -39 6 -16 6 -27 -2 -31 -14 -9
-29 17 -22 39 3 11 0 17 -10 17 -9 0 -16 -8 -16 -20 0 -13 -5 -18 -15 -14 -12
5 -15 -5 -15 -60 0 -37 -4 -66 -10 -66 -5 0 -10 18 -10 40 0 22 -4 40 -10 40
-15 0 -12 -71 5 -104 8 -15 15 -35 15 -42 0 -17 -37 -19 -43 -1 -3 6 -6 1 -6
-13 -1 -18 -12 -31 -41 -48 -22 -12 -40 -29 -40 -37 0 -8 -8 -15 -18 -15 -35
0 -68 -53 -39 -63 6 -2 -5 -9 -26 -15 -28 -8 -47 -7 -74 2 -33 11 -34 13 -19
28 9 9 16 19 16 22 0 10 -30 7 -43 -4 -70 -59 -83 -63 -97 -26 -5 14 -19 26
-32 28 -15 2 -24 10 -24 23 -1 11 -2 25 -3 32 -1 7 -16 16 -33 21 -23 6 -34
15 -36 30 -2 16 -10 22 -28 22 -13 0 -24 4 -24 9 0 5 -9 13 -21 16 -16 5 -19
12 -15 30 4 15 0 29 -10 39 -21 21 -34 20 -34 -3 0 -21 -46 -37 -77 -27 -10 3
-30 0 -45 -8 -18 -10 -29 -11 -37 -3 -7 7 -8 3 -4 -12 4 -16 -1 -27 -16 -37
-37 -27 -19 -53 31 -45 4 0 12 -8 18 -19 9 -16 8 -20 -5 -20 -9 0 -19 -8 -22
-17 -4 -10 -13 -23 -21 -29 -8 -6 -12 -16 -8 -22 5 -8 -2 -12 -18 -12 -29 0
-36 -27 -11 -36 8 -4 15 -17 15 -30 0 -17 6 -24 19 -24 15 0 20 8 23 37 l3 36
31 -26 c24 -20 30 -33 27 -51 -6 -27 21 -74 32 -57 3 6 10 11 15 11 10 0 50
-81 50 -102 0 -9 7 -32 15 -53 17 -39 8 -65 -21 -65 -8 0 -19 -11 -25 -24 -8
-16 -17 -22 -30 -19 -10 3 -19 9 -19 13 0 5 -10 10 -22 12 -18 2 -23 10 -24
36 -1 45 -20 55 -54 31 -21 -16 -31 -18 -53 -10 -27 11 -36 38 -18 57 5 5 13
26 17 48 6 36 5 37 -13 28 -28 -15 -43 3 -36 44 6 35 -3 40 -59 35 -36 -4 -12
50 50 115 12 12 12 17 1 30 -11 14 -10 18 6 30 10 8 25 14 32 14 7 0 13 7 13
15 0 13 -7 15 -38 9 -20 -4 -48 -11 -61 -16 -36 -13 -47 5 -20 31 13 11 26 21
31 21 4 0 8 15 7 33 -1 28 -2 29 -8 8 -6 -22 -7 -22 -21 -7 -11 14 -11 22 -2
36 15 24 5 52 -17 48 -9 -2 -16 -8 -16 -13 0 -10 -15 -53 -43 -118 -14 -33
-14 -40 -1 -48 12 -7 11 -13 -4 -41 -20 -36 -40 -118 -38 -163 0 -16 1 -39 1
-50 0 -11 -3 -40 -7 -65 l-8 -45 -105 -3 c-58 -1 -133 -9 -168 -18 -34 -8 -72
-12 -83 -9 -24 8 -85 -21 -94 -44 -4 -9 2 -21 12 -28 43 -30 62 -49 63 -60 0
-6 4 -14 9 -17 31 -20 150 -37 310 -46 102 -6 198 -15 212 -21 14 -6 89 -14
165 -19 76 -5 175 -14 219 -21 94 -13 123 -5 267 69 53 27 105 46 130 48 66 5
190 -14 328 -51 180 -48 402 -83 487 -77 30 3 50 68 28 92 -8 9 -15 21 -15 27
0 6 -6 16 -14 22 -8 6 -19 31 -25 55 -7 30 -18 46 -36 54 -25 11 -34 32 -15
32 14 0 13 87 -1 92 -6 2 -14 19 -18 38 -6 29 -12 36 -36 40 -23 4 -30 11 -32
30 -6 85 -21 141 -45 163 -37 35 -57 69 -62 106 -2 17 -6 34 -9 38 -4 3 0 18
8 34 8 15 14 49 13 76 -1 26 1 56 6 66 6 12 4 17 -8 17 -9 0 -16 6 -16 14 0 7
-11 25 -25 40 -18 20 -22 32 -16 48 13 35 27 31 44 -12 9 -23 22 -40 31 -40 9
0 16 -4 16 -10 0 -5 8 -10 18 -10 10 0 27 -7 39 -15 18 -12 27 -13 48 -3 16 7
29 8 35 2 10 -10 177 0 188 11 3 3 0 11 -6 17 -19 19 -14 29 7 16 16 -10 27
-4 79 42 l61 52 -21 18 -22 17 22 7 c12 4 26 5 31 1 18 -10 39 48 46 128 5 55
11 77 21 77 9 0 14 12 14 34 0 19 5 38 10 41 17 11 11 20 -24 39 -26 14 -38
16 -54 7 -29 -16 -34 -14 -22 8 5 11 10 39 10 63 0 31 3 39 10 28 14 -22 46 1
42 30 -5 35 -54 96 -92 116 -19 11 -45 28 -58 39 -12 10 -37 24 -55 30 -18 5
-33 17 -33 25 -1 8 -2 20 -3 26 -1 8 -34 14 -88 18 -77 5 -117 9 -160 14 -6 1
-13 14 -15 30 -2 21 -9 28 -29 30 -15 2 -35 12 -44 22 -16 18 -15 20 19 42 41
27 45 38 13 38 -28 0 -47 17 -47 42 0 11 -7 18 -20 18 -16 0 -20 7 -20 30 0
18 -5 30 -13 30 -16 0 -57 37 -57 51 0 6 5 7 10 4 15 -9 40 14 33 31 -3 8 -11
14 -18 14 -7 0 -18 6 -24 14 -9 11 -3 14 31 19 74 11 93 25 93 69 0 29 -4 38
-16 38 -10 0 -19 3 -22 8 -2 4 -2 1 0 -7 4 -16 -14 -31 -39 -31 -23 0 -23 15
1 39 20 20 45 61 39 65 -9 5 -55 25 -71 30 -10 3 -27 1 -38 -5 -11 -6 -34 -7
-51 -4 -27 6 -29 10 -24 39 5 28 3 34 -20 45 -26 11 -26 12 -9 32 18 19 18 20
-1 33 -10 8 -23 12 -28 8 -5 -3 -6 2 -3 12 4 10 7 20 7 22 0 2 8 4 19 4 10 0
24 7 31 15 11 13 9 15 -13 15 -14 0 -27 -7 -31 -15z m150 -282 c-10 -10 -19 5
-10 18 6 11 8 11 12 0 2 -7 1 -15 -2 -18z m-46 2 c15 -18 13 -20 -16 -29 -25
-8 -43 22 -22 36 18 11 24 10 38 -7z m-20 -80 c0 -8 -4 -15 -10 -15 -5 0 -7 7
-4 15 4 8 8 15 10 15 2 0 4 -7 4 -15z m-5 -75 c3 -5 -1 -10 -10 -10 -9 0 -13
5 -10 10 3 6 8 10 10 10 2 0 7 -4 10 -10z m125 -244 c0 -3 -4 -8 -10 -11 -5
-3 -10 -1 -10 4 0 6 5 11 10 11 6 0 10 -2 10 -4z m-60 -1076 c0 -5 -4 -10 -10
-10 -5 0 -10 5 -10 10 0 6 5 10 10 10 6 0 10 -4 10 -10z m-77 -147 c-7 -2 -19
-2 -25 0 -7 3 -2 5 12 5 14 0 19 -2 13 -5z m-968 -263 c3 -5 1 -10 -4 -10 -6
0 -11 5 -11 10 0 6 2 10 4 10 3 0 8 -4 11 -10z m95 -404 c0 -16 -37 -32 -48
-21 -7 7 25 35 40 35 4 0 8 -6 8 -14z m106 -13 c-4 -36 -36 -45 -36 -10 0 27
7 37 26 37 8 0 12 -10 10 -27z m-29 -59 c-3 -3 -12 -4 -19 -1 -8 3 -5 6 6 6
11 1 17 -2 13 -5z"/>
<path d="M3033 3173 c-14 -5 -18 -33 -5 -33 5 0 16 6 26 13 15 11 16 15 5 19
-8 3 -20 3 -26 1z"/>
<path d="M2400 3159 c0 -5 5 -7 10 -4 6 3 10 8 10 11 0 2 -4 4 -10 4 -5 0 -10
-5 -10 -11z"/>
<path d="M2303 3118 c2 -7 16 -13 32 -13 16 0 30 6 33 13 2 8 -8 12 -33 12
-25 0 -35 -4 -32 -12z"/>
<path d="M2465 3110 c3 -5 8 -10 11 -10 2 0 4 5 4 10 0 6 -5 10 -11 10 -5 0
-7 -4 -4 -10z"/>
<path d="M2380 3055 c-7 -8 -20 -15 -28 -15 -12 0 -13 -3 -4 -12 8 -8 15 -8
24 -1 7 6 24 13 38 15 25 3 25 3 4 16 -18 9 -24 9 -34 -3z"/>
<path d="M1818 2596 c-22 -22 -24 -66 -3 -66 19 0 27 20 23 56 -3 27 -4 27
-20 10z"/>
<path d="M1778 2489 c-10 -5 -18 -18 -18 -27 0 -10 -5 -23 -12 -30 -15 -15 7
-43 28 -35 8 3 28 0 45 -7 25 -11 32 -11 39 0 11 17 2 40 -15 40 -22 0 -27 19
-11 36 9 9 14 20 11 25 -8 12 -45 11 -67 -2z"/>
<path d="M1900 2438 c0 -48 50 -89 64 -53 3 8 2 15 -3 15 -4 0 -7 10 -7 23 1
17 -5 23 -26 25 -19 2 -28 -1 -28 -10z"/>
<path d="M2080 2430 c0 -5 5 -10 11 -10 5 0 7 5 4 10 -3 6 -8 10 -11 10 -2 0
-4 -4 -4 -10z"/>
<path d="M1793 2373 c-7 -3 -13 -14 -13 -26 0 -16 9 -25 35 -33 20 -6 38 -7
41 -3 3 5 -2 9 -10 9 -9 0 -16 8 -16 19 0 22 -20 40 -37 34z"/>
<path d="M2064 2304 c3 -9 6 -19 6 -22 0 -9 20 21 20 31 0 4 -7 7 -16 7 -11 0
-14 -5 -10 -16z"/>
<path d="M2186 2298 c10 -13 19 -24 19 -25 0 -1 6 2 13 6 20 12 2 41 -26 41
-25 0 -25 0 -6 -22z"/>
<path d="M4720 2254 c0 -24 -2 -25 -46 -23 -40 3 -50 -1 -68 -23 -11 -14 -31
-29 -43 -32 -11 -4 -27 -14 -35 -23 -13 -16 -19 -73 -7 -73 12 0 18 -45 8 -55
-6 -5 -24 -10 -42 -10 -44 0 -50 -34 -10 -60 45 -30 50 -38 56 -89 4 -26 11
-54 17 -61 6 -7 8 -21 4 -31 -4 -15 -4 -16 4 -5 15 21 39 6 47 -28 7 -34 38
-58 82 -62 26 -3 40 5 78 40 34 32 44 48 40 62 -4 11 -2 26 4 33 12 15 23 135
23 261 0 50 5 98 10 108 15 29 1 52 -47 75 -60 29 -75 28 -75 -4z"/>
<path d="M1815 2254 c-15 -8 -31 -14 -37 -14 -14 0 -52 -39 -45 -46 3 -3 19
-2 34 3 32 12 70 -1 75 -25 2 -10 12 -2 31 24 15 22 27 43 27 46 0 3 -13 11
-29 16 -22 8 -36 7 -56 -4z"/>
<path d="M2211 2146 c-9 -10 -8 -15 3 -19 16 -7 26 1 26 20 0 17 -14 17 -29
-1z"/>
<path d="M1635 2140 c3 -5 8 -10 11 -10 2 0 4 5 4 10 0 6 -5 10 -11 10 -5 0
-7 -4 -4 -10z"/>
<path d="M1840 2120 c0 -19 3 -21 12 -12 9 9 9 15 0 24 -9 9 -12 7 -12 -12z"/>
<path d="M1597 2096 c-6 -14 0 -26 13 -26 3 0 6 9 7 20 2 23 -12 27 -20 6z"/>
<path d="M2160 2010 c0 -5 7 -10 15 -10 8 0 15 5 15 10 0 6 -7 10 -15 10 -8 0
-15 -4 -15 -10z"/>
<path d="M1590 1960 c0 -13 28 -25 38 -16 3 4 0 11 -8 16 -20 13 -30 12 -30 0z"/>
<path d="M2188 1943 c-2 -4 -4 -17 -4 -27 1 -27 26 -33 26 -7 0 12 0 24 1 28
1 11 -18 16 -23 6z"/>
<path d="M4477 1883 c-13 -12 -7 -43 8 -43 8 0 15 6 15 13 0 18 -15 38 -23 30z"/>
<path d="M4485 1820 c-7 -12 2 -30 16 -30 12 0 12 27 0 35 -5 3 -12 1 -16 -5z"/>
<path d="M2173 1813 c-7 -2 -13 -13 -13 -24 0 -15 4 -17 23 -10 12 5 22 14 22
21 0 15 -14 21 -32 13z"/>
<path d="M2290 1795 c0 -8 7 -15 15 -15 8 0 15 7 15 15 0 8 -7 15 -15 15 -8 0
-15 -7 -15 -15z"/>
<path d="M1779 1740 c28 -24 45 -26 37 -4 -3 9 -6 18 -6 20 0 2 -12 4 -27 4
l-28 -1 24 -19z"/>
<path d="M2087 1737 c-21 -13 -35 -26 -31 -30 12 -12 24 -8 24 8 0 8 9 15 19
15 11 0 23 5 26 11 13 20 -1 18 -38 -4z"/>
<path d="M2220 1543 c-8 -13 -20 -23 -27 -23 -15 0 -15 -2 -7 -24 7 -18 36
-21 65 -6 22 12 25 30 5 30 -8 0 -16 10 -18 23 l-3 22 -15 -22z"/>
<path d="M4110 1509 c0 -5 5 -7 10 -4 6 3 10 8 10 11 0 2 -4 4 -10 4 -5 0 -10
-5 -10 -11z"/>
<path d="M2100 1400 c0 -22 5 -40 10 -40 6 0 10 18 10 40 0 22 -4 40 -10 40
-5 0 -10 -18 -10 -40z"/>
<path d="M4069 1415 c-2 -18 -10 -30 -19 -30 -8 0 -20 -16 -26 -35 -7 -19 -16
-35 -22 -35 -18 0 -23 -12 -24 -54 0 -38 -3 -43 -29 -48 -19 -3 -29 -12 -31
-27 -2 -16 -9 -21 -29 -19 -20 1 -28 -5 -37 -30 -7 -19 -8 -35 -2 -42 16 -19
-10 -38 -29 -21 -9 8 -28 18 -43 21 -22 6 -28 4 -28 -9 0 -9 -11 -21 -25 -26
-18 -7 -23 -14 -18 -27 5 -15 3 -16 -7 -6 -10 9 -17 10 -27 2 -17 -15 -17 -34
2 -49 8 -7 15 -21 15 -30 0 -10 6 -31 14 -47 28 -55 45 -109 56 -177 12 -76
25 -107 69 -176 16 -25 30 -56 30 -70 2 -37 16 -56 33 -43 9 8 32 7 83 -4 69
-15 152 -18 189 -7 16 5 14 9 -13 25 -36 22 -44 47 -39 128 2 43 -1 61 -9 61
-7 0 -10 6 -7 14 3 8 1 23 -5 33 -9 16 -11 14 -12 -12 -1 -30 -1 -30 -9 -5
-11 35 -12 98 -1 104 5 4 11 0 14 -6 6 -17 17 -6 22 23 3 12 -1 30 -8 38 -21
25 -58 185 -58 251 0 76 2 82 23 77 18 -5 20 -2 14 25 -3 17 0 43 8 62 34 77
38 166 7 166 -5 0 -11 8 -14 18 -2 10 -5 6 -8 -13z m8 -127 c-3 -7 -5 -2 -5
12 0 14 2 19 5 13 2 -7 2 -19 0 -25z m-59 -687 c23 -40 29 -105 13 -130 -14
-23 -101 -15 -119 10 -7 10 -20 19 -28 19 -8 0 -14 7 -14 16 0 10 6 13 18 10
19 -6 52 37 52 67 0 14 35 47 50 47 4 0 16 -17 28 -39z"/>
<path d="M1440 1395 c0 -14 6 -25 13 -25 6 0 24 -7 40 -14 23 -13 27 -13 27 0
0 8 9 14 19 14 19 0 35 23 24 34 -3 3 -14 1 -24 -5 -13 -7 -29 -5 -55 6 -46
19 -44 19 -44 -10z"/>
<path d="M1440 1350 c0 -5 4 -10 9 -10 6 0 13 5 16 10 3 6 -1 10 -9 10 -9 0
-16 -4 -16 -10z"/>
<path d="M1385 1330 c-4 -7 -3 -16 3 -22 14 -14 47 -6 47 12 0 18 -40 26 -50
10z"/>
<path d="M1985 1241 c-3 -5 -1 -12 5 -16 5 -3 10 1 10 9 0 18 -6 21 -15 7z"/>
<path d="M2105 1220 c-9 -15 -1 -23 21 -18 15 3 16 4 1 16 -11 9 -17 10 -22 2z"/>
<path d="M1680 1200 c0 -23 22 -27 39 -6 9 11 8 15 -5 20 -26 10 -34 7 -34
-14z"/>
<path d="M2027 1154 c-14 -15 -6 -34 14 -34 14 0 19 5 17 17 -3 18 -20 27 -31
17z"/>
<path d="M1230 970 c0 -5 7 -10 15 -10 8 0 15 5 15 10 0 6 -7 10 -15 10 -8 0
-15 -4 -15 -10z"/>
<path d="M1280 923 c0 -25 1 -26 16 -11 9 9 13 21 10 27 -13 20 -26 11 -26
-16z"/>
<path d="M3565 250 c-8 -14 3 -30 21 -30 16 0 16 2 8 24 -7 18 -20 21 -29 6z"/>
</g>
</svg>
